<?xml version="1.0" encoding="UTF-8"?>
<svg id="Layer_1" data-name="Layer 1" xmlns="http://www.w3.org/2000/svg" viewBox="0 0 4518.8 1729.06">
  <defs>
    <style>
      .cls-1 {
        fill: #35a8e0;
      }

      .cls-1, .cls-2, .cls-3 {
        stroke-width: 0px;
      }

      .cls-2 {
        fill: #404040;
      }

      .cls-3 {
        fill: #fff;
      }
    </style>
  </defs>
  <rect id="background" class="cls-3" width="4518.8" height="1729.06"/>
  <g id="program_code_icon" data-name="program code icon">
    <g id="down_icons" data-name="down icons">
      <g id="stroke_5" data-name="stroke 5">
        <path class="cls-2" d="M667.72,1416.62l-75.57-75.57c-7.81-7.81-20.47-7.81-28.28,0-7.81,7.81-7.81,20.47,0,28.29l61.42,61.42-61.42,61.42c-7.81,7.81-7.81,20.47,0,28.28,3.91,3.91,9.02,5.86,14.14,5.86s10.24-1.95,14.14-5.86l75.57-75.57c3.75-3.75,5.86-8.84,5.86-14.14s-2.11-10.39-5.86-14.14Z"/>
        <path class="cls-2" d="M362.08,1341.05c-7.81-7.81-20.47-7.81-28.28,0l-75.57,75.57c-3.75,3.75-5.86,8.84-5.86,14.14s2.11,10.39,5.86,14.14l75.57,75.57c3.91,3.91,9.02,5.86,14.14,5.86s10.24-1.95,14.14-5.86c7.81-7.81,7.81-20.47,0-28.28l-61.42-61.42,61.42-61.42c7.81-7.81,7.81-20.47,0-28.29Z"/>
        <path class="cls-2" d="M506.69,1299.32c-10.48-3.49-21.8,2.18-25.29,12.67l-74.81,224.93c-3.49,10.48,2.19,21.8,12.67,25.29,2.09.7,4.22,1.03,6.31,1.03,8.38,0,16.19-5.31,18.98-13.69l74.81-224.93c3.49-10.48-2.19-21.8-12.67-25.29Z"/>
      </g>
      <g id="stroke_4" data-name="stroke 4">
        <path class="cls-2" d="M1580.1,1419.64l-75.57-75.57c-6.14-6.14-16.1-6.14-22.24,0-6.14,6.14-6.14,16.1,0,22.24l64.45,64.45-64.45,64.45c-6.14,6.14-6.14,16.1,0,22.24,3.07,3.07,7.09,4.61,11.12,4.61s8.05-1.54,11.12-4.61l75.57-75.57c2.95-2.95,4.61-6.95,4.61-11.12s-1.66-8.17-4.61-11.12Z"/>
        <path class="cls-2" d="M1274.46,1344.08c-6.14-6.14-16.1-6.14-22.24,0l-75.57,75.57c-2.95,2.95-4.61,6.95-4.61,11.12s1.66,8.17,4.61,11.12l75.57,75.57c3.07,3.07,7.09,4.61,11.12,4.61s8.05-1.54,11.12-4.61c6.14-6.14,6.14-16.1,0-22.24l-64.45-64.45,64.45-64.45c6.14-6.14,6.14-16.1,0-22.24Z"/>
        <path class="cls-2" d="M1420.74,1303.38c-8.24-2.74-17.14,1.72-19.88,9.96l-74.81,224.93c-2.74,8.24,1.72,17.14,9.96,19.88,1.65.55,3.32.81,4.96.81,6.59,0,12.73-4.17,14.92-10.77l74.81-224.93c2.74-8.24-1.72-17.14-9.96-19.88Z"/>
      </g>
      <g id="stroke_3" data-name="stroke 3">
        <path class="cls-2" d="M2483.56,1422.82l-75.57-75.57c-4.39-4.39-11.5-4.39-15.89,0s-4.39,11.5,0,15.89l67.62,67.62-67.62,67.62c-4.39,4.39-4.39,11.5,0,15.89,2.19,2.19,5.07,3.29,7.94,3.29s5.75-1.1,7.94-3.29l75.57-75.57c2.11-2.11,3.29-4.96,3.29-7.94s-1.18-5.84-3.29-7.94Z"/>
        <path class="cls-2" d="M2177.92,1347.25c-4.39-4.39-11.5-4.39-15.89,0l-75.57,75.57c-2.11,2.11-3.29,4.96-3.29,7.94s1.18,5.84,3.29,7.94l75.57,75.57c2.19,2.19,5.07,3.29,7.94,3.29s5.75-1.1,7.94-3.29c4.39-4.39,4.39-11.5,0-15.89l-67.62-67.62,67.62-67.62c4.39-4.39,4.39-11.5,0-15.89Z"/>
        <path class="cls-2" d="M2325.96,1307.63c-5.89-1.96-12.25,1.23-14.21,7.12l-74.81,224.93c-1.96,5.89,1.23,12.25,7.12,14.21,1.18.39,2.37.58,3.55.58,4.71,0,9.09-2.98,10.66-7.69l74.81-224.93c1.96-5.89-1.23-12.25-7.12-14.21Z"/>
      </g>
      <g id="stroke_2" data-name="stroke 2">
        <path class="cls-2" d="M3378.03,1426l-75.57-75.57c-2.63-2.63-6.9-2.63-9.53,0-2.63,2.63-2.63,6.9,0,9.53l70.8,70.8-70.8,70.8c-2.63,2.63-2.63,6.9,0,9.53,1.32,1.32,3.04,1.97,4.77,1.97s3.45-.66,4.77-1.97l75.57-75.57c1.26-1.26,1.97-2.98,1.97-4.77s-.71-3.5-1.97-4.77Z"/>
        <path class="cls-2" d="M3072.39,1350.43c-2.63-2.63-6.9-2.63-9.53,0l-75.57,75.57c-1.26,1.26-1.97,2.98-1.97,4.77s.71,3.5,1.97,4.77l75.57,75.57c1.32,1.32,3.04,1.97,4.77,1.97s3.45-.66,4.77-1.97c2.63-2.63,2.63-6.9,0-9.53l-70.8-70.8,70.8-70.8c2.63-2.63,2.63-6.9,0-9.53Z"/>
        <path class="cls-2" d="M3222.19,1311.9c-3.53-1.17-7.35.74-8.52,4.27l-74.81,224.93c-1.17,3.53.74,7.35,4.27,8.52.71.23,1.42.35,2.13.35,2.82,0,5.45-1.79,6.39-4.62l74.81-224.93c1.17-3.53-.74-7.35-4.27-8.52Z"/>
      </g>
      <g id="stroke_1" data-name="stroke 1">
        <path class="cls-2" d="M4265.44,1428.38l-75.57-75.57c-1.32-1.32-3.46-1.32-4.77,0-1.32,1.32-1.32,3.46,0,4.77l73.18,73.18-73.18,73.18c-1.32,1.32-1.32,3.46,0,4.77.66.66,1.52.99,2.39.99s1.73-.33,2.39-.99l75.57-75.57c.63-.63.99-1.49.99-2.39s-.36-1.75-.99-2.39Z"/>
        <path class="cls-2" d="M3959.8,1352.81c-1.32-1.32-3.46-1.32-4.77,0l-75.57,75.57c-.63.63-.99,1.49-.99,2.39s.36,1.75.99,2.39l75.57,75.57c.66.66,1.52.99,2.39.99s1.73-.33,2.39-.99c1.32-1.32,1.32-3.46,0-4.77l-73.18-73.18,73.18-73.18c1.32-1.32,1.32-3.46,0-4.77Z"/>
        <path class="cls-2" d="M4110.92,1315.09c-1.77-.59-3.68.37-4.27,2.14l-74.81,224.93c-.59,1.77.37,3.68,2.14,4.27.35.12.71.17,1.07.17,1.41,0,2.73-.9,3.2-2.31l74.81-224.93c.59-1.77-.37-3.68-2.14-4.27Z"/>
      </g>
    </g>
    <g id="up_icons" data-name="up icons">
      <g id="black_circle" data-name="black circle">
        <path class="cls-2" d="M560.15,165.83c-214.81,0-389.57,174.76-389.57,389.57s174.76,389.58,389.57,389.58,389.58-174.76,389.58-389.58-174.76-389.57-389.58-389.57Z"/>
        <g>
          <path class="cls-3" d="M761.88,544.28l-75.57-75.57c-6.14-6.14-16.1-6.14-22.24,0-6.14,6.14-6.14,16.1,0,22.24l64.45,64.45-64.45,64.45c-6.14,6.14-6.14,16.1,0,22.24,3.07,3.07,7.09,4.61,11.12,4.61s8.05-1.54,11.12-4.61l75.57-75.57c2.95-2.95,4.61-6.95,4.61-11.12s-1.66-8.17-4.61-11.12Z"/>
          <path class="cls-3" d="M456.24,468.71c-6.14-6.14-16.1-6.14-22.24,0l-75.57,75.57c-2.95,2.95-4.61,6.95-4.61,11.12s1.66,8.17,4.61,11.12l75.57,75.57c3.07,3.07,7.09,4.61,11.12,4.61s8.05-1.54,11.12-4.61c6.14-6.14,6.14-16.1,0-22.24l-64.45-64.45,64.45-64.45c6.14-6.14,6.14-16.1,0-22.24Z"/>
          <path class="cls-3" d="M602.52,428.01c-8.24-2.74-17.14,1.72-19.88,9.96l-74.81,224.93c-2.74,8.24,1.72,17.14,9.96,19.88,1.65.55,3.32.81,4.96.81,6.59,0,12.73-4.17,14.92-10.77l74.81-224.93c2.74-8.24-1.72-17.14-9.96-19.88Z"/>
        </g>
      </g>
      <g id="black_line" data-name="black line">
        <path class="cls-2" d="M1692.98,944.97c-214.81,0-389.57-174.76-389.57-389.58s174.76-389.57,389.57-389.57,389.58,174.76,389.58,389.57-174.76,389.58-389.58,389.58ZM1692.98,197.28c-197.47,0-358.12,160.65-358.12,358.12s160.65,358.12,358.12,358.12,358.12-160.66,358.12-358.12-160.66-358.12-358.12-358.12Z"/>
        <g>
          <path class="cls-2" d="M1894.71,544.28l-75.57-75.57c-6.14-6.14-16.1-6.14-22.24,0-6.14,6.14-6.14,16.1,0,22.24l64.45,64.45-64.45,64.45c-6.14,6.14-6.14,16.1,0,22.24,3.07,3.07,7.09,4.61,11.12,4.61s8.05-1.54,11.12-4.61l75.57-75.57c2.95-2.95,4.61-6.95,4.61-11.12s-1.66-8.17-4.61-11.12Z"/>
          <path class="cls-2" d="M1589.07,468.71c-6.14-6.14-16.1-6.14-22.24,0l-75.57,75.57c-2.95,2.95-4.61,6.95-4.61,11.12s1.66,8.17,4.61,11.12l75.57,75.57c3.07,3.07,7.09,4.61,11.12,4.61s8.05-1.54,11.12-4.61c6.14-6.14,6.14-16.1,0-22.24l-64.45-64.45,64.45-64.45c6.14-6.14,6.14-16.1,0-22.24Z"/>
          <path class="cls-2" d="M1735.35,428.01c-8.24-2.74-17.14,1.72-19.88,9.96l-74.81,224.93c-2.74,8.24,1.72,17.14,9.96,19.88,1.65.55,3.32.81,4.96.81,6.59,0,12.73-4.17,14.92-10.77l74.81-224.93c2.74-8.24-1.72-17.14-9.96-19.88Z"/>
        </g>
      </g>
      <g id="blue_circle" data-name="blue circle">
        <path class="cls-1" d="M2825.81,165.83c-214.81,0-389.57,174.76-389.57,389.57s174.76,389.58,389.57,389.58,389.58-174.76,389.58-389.58-174.76-389.57-389.58-389.57Z"/>
        <g>
          <path class="cls-3" d="M3027.54,544.28l-75.57-75.57c-6.14-6.14-16.1-6.14-22.24,0-6.14,6.14-6.14,16.1,0,22.24l64.45,64.45-64.45,64.45c-6.14,6.14-6.14,16.1,0,22.24,3.07,3.07,7.09,4.61,11.12,4.61s8.05-1.54,11.12-4.61l75.57-75.57c2.95-2.95,4.61-6.95,4.61-11.12s-1.66-8.17-4.61-11.12Z"/>
          <path class="cls-3" d="M2721.9,468.71c-6.14-6.14-16.1-6.14-22.24,0l-75.57,75.57c-2.95,2.95-4.61,6.95-4.61,11.12s1.66,8.17,4.61,11.12l75.57,75.57c3.07,3.07,7.09,4.61,11.12,4.61s8.05-1.54,11.12-4.61c6.14-6.14,6.14-16.1,0-22.24l-64.45-64.45,64.45-64.45c6.14-6.14,6.14-16.1,0-22.24Z"/>
          <path class="cls-3" d="M2868.18,428.01c-8.24-2.74-17.14,1.72-19.88,9.96l-74.81,224.93c-2.74,8.24,1.72,17.14,9.96,19.88,1.65.55,3.32.81,4.96.81,6.59,0,12.73-4.17,14.92-10.77l74.81-224.93c2.74-8.24-1.72-17.14-9.96-19.88Z"/>
        </g>
      </g>
      <g id="blue_line" data-name="blue line">
        <path class="cls-1" d="M3958.64,944.97c-214.81,0-389.57-174.76-389.57-389.58s174.76-389.57,389.57-389.57,389.58,174.76,389.58,389.57-174.76,389.58-389.58,389.58ZM3958.64,197.28c-197.47,0-358.12,160.65-358.12,358.12s160.65,358.12,358.12,358.12,358.12-160.66,358.12-358.12-160.66-358.12-358.12-358.12Z"/>
        <g>
          <path class="cls-1" d="M4160.37,544.28l-75.57-75.57c-6.14-6.14-16.1-6.14-22.24,0-6.14,6.14-6.14,16.1,0,22.24l64.45,64.45-64.45,64.45c-6.14,6.14-6.14,16.1,0,22.24,3.07,3.07,7.09,4.61,11.12,4.61s8.05-1.54,11.12-4.61l75.57-75.57c2.95-2.95,4.61-6.95,4.61-11.12s-1.66-8.17-4.61-11.12Z"/>
          <path class="cls-1" d="M3854.73,468.71c-6.14-6.14-16.1-6.14-22.24,0l-75.57,75.57c-2.95,2.95-4.61,6.95-4.61,11.12s1.66,8.17,4.61,11.12l75.57,75.57c3.07,3.07,7.09,4.61,11.12,4.61s8.05-1.54,11.12-4.61c6.14-6.14,6.14-16.1,0-22.24l-64.45-64.45,64.45-64.45c6.14-6.14,6.14-16.1,0-22.24Z"/>
          <path class="cls-1" d="M4001.01,428.01c-8.24-2.74-17.14,1.72-19.88,9.96l-74.81,224.93c-2.74,8.24,1.72,17.14,9.96,19.88,1.65.55,3.32.81,4.96.81,6.59,0,12.73-4.17,14.92-10.77l74.81-224.93c2.74-8.24-1.72-17.14-9.96-19.88Z"/>
        </g>
      </g>
    </g>
  </g>
</svg>