<?xml version="1.0" encoding="utf-8"?>
<!-- Generator: Adobe Illustrator 24.0.2, SVG Export Plug-In . SVG Version: 6.00 Build 0)  -->
<svg version="1.1" id="Layer_3" xmlns="http://www.w3.org/2000/svg" xmlns:xlink="http://www.w3.org/1999/xlink" x="0px" y="0px"
	 viewBox="0 0 48 48" style="enable-background:new 0 0 48 48;" xml:space="preserve">
<path d="M35.8,15c0-3.2-5.2-5.8-11.8-5.8S12.3,11.8,12.3,15v18c0,3.2,5.2,5.8,11.8,5.8s11.8-2.5,11.8-5.8V15z M13.8,23.8
	c2,1.7,5.8,2.9,10.3,2.9s8.3-1.2,10.3-2.9V27c0,2-4.2,4.3-10.3,4.3S13.8,29,13.8,27V23.8z M13.8,17.8c2,1.7,5.8,2.9,10.3,2.9
	s8.3-1.2,10.3-2.9V21c0,2-4.2,4.3-10.3,4.3S13.8,23,13.8,21V17.8z M24,10.8c6,0,10.3,2.2,10.3,4.3S30,19.3,24,19.3S13.8,17,13.8,15
	S18,10.8,24,10.8z M24,37.3c-6,0-10.3-2.2-10.3-4.3v-3.2c2,1.7,5.8,2.9,10.3,2.9s8.3-1.2,10.3-2.9V33C34.3,35,30,37.3,24,37.3z"/>
</svg>
